<!-- sog-slide-1.svg -->
<svg xmlns="http://www.w3.org/2000/svg" width="1600" height="600" viewBox="0 0 1600 600">
  <defs>
    <linearGradient id="bg1" x1="0" y1="0" x2="1" y2="1">
      <stop offset="0" stop-color="#95ecf1"/>
      <stop offset="0.55" stop-color="#17bebb"/>
      <stop offset="1" stop-color="#0097b2"/>
    </linearGradient>

    <filter id="softGlow" x="-20%" y="-20%" width="140%" height="140%">
      <feGaussianBlur stdDeviation="8" result="blur"/>
      <feColorMatrix in="blur" type="matrix"
        values="1 0 0 0 0
                0 1 0 0 0
                0 0 1 0 0
                0 0 0 .35 0" result="glow"/>
      <feMerge>
        <feMergeNode in="glow"/>
        <feMergeNode in="SourceGraphic"/>
      </feMerge>
    </filter>

    <pattern id="dots" width="28" height="28" patternUnits="userSpaceOnUse">
      <circle cx="2" cy="2" r="1.4" fill="rgba(255,255,255,0.18)"/>
    </pattern>
  </defs>

  <rect width="1600" height="600" fill="url(#bg1)"/>
  <rect width="1600" height="600" fill="url(#dots)" opacity="0.55"/>

  <!-- Soft wave shapes -->
  <path d="M0,420 C250,360 450,520 700,450 C950,380 1150,520 1600,400 L1600,600 L0,600 Z"
        fill="rgba(255,255,255,0.18)"/>
  <path d="M0,470 C280,400 520,560 780,500 C1020,445 1200,560 1600,455 L1600,600 L0,600 Z"
        fill="rgba(255,255,255,0.12)"/>

  <!-- Music notes (decorative) -->
  <g filter="url(#softGlow)" opacity="0.85">
    <path d="M1240 130 v175 c0 40-30 70-72 70-38 0-66-23-66-55 0-36 33-62 78-62 16 0 32 3 45 9V120l185-35v65z"
          fill="rgba(255,255,255,0.35)"/>
    <path d="M250 210 v170 c0 36-28 64-66 64-34 0-60-20-60-50 0-34 31-58 71-58 14 0 28 3 39 8V195l155-30v60z"
          fill="rgba(255,255,255,0.25)"/>
  </g>

  <!-- Safe text zone hint (invisible) -->
  <rect x="120" y="140" width="780" height="260" fill="rgba(255,255,255,0.0)"/>
</svg>